<?xml version="1.0" encoding="utf-8"?>
<!-- Generator: Adobe Illustrator 15.0.0, SVG Export Plug-In . SVG Version: 6.00 Build 0)  -->
<!DOCTYPE svg PUBLIC "-//W3C//DTD SVG 1.1//EN" "http://www.w3.org/Graphics/SVG/1.1/DTD/svg11.dtd">
<svg version="1.1" id="Layer_1" xmlns="http://www.w3.org/2000/svg" xmlns:xlink="http://www.w3.org/1999/xlink" x="0px" y="0px"
	 width="100px" height="100px" viewBox="0 0 100 100" enable-background="new 0 0 100 100" xml:space="preserve">
<rect x="-2.5" y="-3.396" fill="#CCCCCC" width="104.488" height="105.292"/>
<g>
	<path fill="#FFFFFF" d="M9.486,51.849v-5.197h1.048v5.197H9.486z"/>
	<path fill="#FFFFFF" d="M11.521,51.849v-5.197h1.57l0.943,3.545l0.932-3.545h1.573v5.197h-0.975v-4.092l-1.031,4.092h-1.01
		l-1.029-4.092v4.092H11.521z"/>
	<path fill="#FFFFFF" d="M22.266,51.849h-1.142l-0.454-1.182h-2.077l-0.429,1.182h-1.112l2.023-5.197h1.109L22.266,51.849z
		 M20.334,49.792l-0.716-1.928l-0.702,1.928H20.334z"/>
	<path fill="#FFFFFF" d="M25.238,49.938v-0.875H27.5v2.068c-0.22,0.213-0.538,0.399-0.956,0.562
		c-0.417,0.163-0.838,0.242-1.267,0.242c-0.544,0-1.017-0.113-1.421-0.342c-0.404-0.227-0.708-0.554-0.912-0.978
		c-0.203-0.423-0.304-0.886-0.304-1.384c0-0.541,0.112-1.022,0.339-1.443c0.227-0.42,0.559-0.742,0.997-0.967
		c0.333-0.173,0.748-0.258,1.245-0.258c0.645,0,1.148,0.135,1.511,0.406c0.363,0.27,0.596,0.644,0.701,1.122l-1.042,0.195
		c-0.073-0.256-0.21-0.457-0.413-0.604c-0.201-0.148-0.454-0.222-0.756-0.222c-0.459,0-0.823,0.145-1.094,0.436
		c-0.27,0.292-0.405,0.722-0.405,1.294c0,0.617,0.137,1.079,0.41,1.386c0.274,0.309,0.635,0.464,1.078,0.464
		c0.219,0,0.44-0.044,0.661-0.13s0.411-0.19,0.568-0.313v-0.659H25.238z"/>
	<path fill="#FFFFFF" d="M28.468,51.849v-5.197h3.852v0.878h-2.804v1.152h2.609v0.877h-2.609v1.413h2.903v0.877H28.468z"/>
	<path fill="#FFFFFF" d="M35.325,51.849v-5.197h1.683c0.638,0,1.054,0.027,1.247,0.078c0.299,0.079,0.547,0.247,0.748,0.508
		s0.302,0.599,0.302,1.013c0,0.319-0.058,0.587-0.174,0.804c-0.116,0.218-0.263,0.388-0.442,0.512
		c-0.178,0.124-0.359,0.206-0.543,0.245c-0.25,0.051-0.613,0.076-1.088,0.076h-0.685v1.96H35.325z M36.374,47.53v1.475h0.574
		c0.414,0,0.69-0.027,0.83-0.081c0.139-0.055,0.25-0.14,0.328-0.255c0.079-0.117,0.119-0.25,0.119-0.405
		c0-0.188-0.056-0.345-0.167-0.467c-0.111-0.124-0.251-0.2-0.422-0.231c-0.124-0.024-0.376-0.036-0.754-0.036H36.374z"/>
	<path fill="#FFFFFF" d="M40.194,51.849v-5.154h1.049v4.277h2.609v0.877H40.194z"/>
	<path fill="#FFFFFF" d="M49.284,51.849h-1.141l-0.454-1.182h-2.077l-0.429,1.182h-1.112l2.022-5.197h1.11L49.284,51.849z
		 M47.354,49.792l-0.715-1.928l-0.702,1.928H47.354z"/>
	<path fill="#FFFFFF" d="M53.165,49.938l1.018,0.323c-0.155,0.568-0.415,0.988-0.777,1.263c-0.362,0.274-0.822,0.412-1.381,0.412
		c-0.69,0-1.257-0.234-1.7-0.706c-0.446-0.472-0.667-1.115-0.667-1.934c0-0.865,0.224-1.536,0.67-2.014
		c0.445-0.478,1.033-0.718,1.762-0.718c0.636,0,1.15,0.188,1.549,0.562c0.235,0.223,0.413,0.542,0.53,0.958l-1.037,0.249
		c-0.062-0.27-0.19-0.483-0.385-0.639c-0.195-0.156-0.433-0.233-0.71-0.233c-0.387,0-0.699,0.138-0.938,0.414
		c-0.24,0.277-0.36,0.725-0.36,1.343c0,0.658,0.118,1.125,0.355,1.403c0.235,0.279,0.543,0.419,0.92,0.419
		c0.279,0,0.52-0.089,0.72-0.268C52.934,50.597,53.078,50.319,53.165,49.938z"/>
	<path fill="#FFFFFF" d="M55.083,51.849v-5.197h3.852v0.878h-2.804v1.152h2.609v0.877h-2.609v1.413h2.903v0.877H55.083z"/>
	<path fill="#FFFFFF" d="M59.929,51.849v-5.197h1.048v2.045h2.056v-2.045h1.048v5.197h-1.048v-2.273h-2.056v2.273H59.929z"/>
	<path fill="#FFFFFF" d="M64.952,49.282c0-0.53,0.08-0.973,0.238-1.333c0.117-0.265,0.279-0.503,0.484-0.712
		c0.204-0.211,0.427-0.366,0.671-0.468c0.324-0.137,0.696-0.205,1.12-0.205c0.766,0,1.378,0.237,1.837,0.712
		c0.46,0.475,0.689,1.135,0.689,1.982c0,0.837-0.228,1.494-0.684,1.969c-0.457,0.474-1.066,0.709-1.829,0.709
		c-0.772,0-1.387-0.234-1.844-0.706C65.181,50.758,64.952,50.109,64.952,49.282z M66.033,49.247c0,0.588,0.137,1.034,0.409,1.337
		c0.27,0.304,0.615,0.456,1.034,0.456c0.418,0,0.76-0.15,1.03-0.452c0.266-0.301,0.401-0.753,0.401-1.355
		c0-0.596-0.131-1.04-0.392-1.333c-0.26-0.292-0.608-0.438-1.04-0.438c-0.435,0-0.781,0.147-1.046,0.444
		C66.166,48.201,66.033,48.648,66.033,49.247z"/>
	<path fill="#FFFFFF" d="M70.84,51.849v-5.154h1.049v4.277h2.607v0.877H70.84z"/>
	<path fill="#FFFFFF" d="M75.241,46.652h1.917c0.433,0,0.762,0.033,0.988,0.1C78.451,46.84,78.713,47,78.93,47.23
		c0.219,0.229,0.384,0.509,0.496,0.841c0.115,0.332,0.171,0.741,0.171,1.228c0,0.428-0.053,0.796-0.16,1.106
		c-0.129,0.377-0.314,0.684-0.557,0.917c-0.18,0.178-0.428,0.315-0.736,0.414c-0.23,0.072-0.54,0.111-0.928,0.111h-1.975V46.652z
		 M76.289,47.53v3.441h0.784c0.293,0,0.504-0.016,0.634-0.049c0.172-0.042,0.312-0.114,0.424-0.217
		c0.112-0.102,0.204-0.269,0.274-0.501c0.07-0.232,0.106-0.55,0.106-0.952c0-0.401-0.036-0.709-0.106-0.926
		c-0.07-0.214-0.169-0.382-0.297-0.502s-0.289-0.202-0.486-0.244c-0.146-0.034-0.434-0.051-0.86-0.051H76.289z"/>
	<path fill="#FFFFFF" d="M80.486,51.849v-5.197h3.852v0.878h-2.804v1.152h2.609v0.877h-2.609v1.413h2.903v0.877H80.486z"/>
	<path fill="#FFFFFF" d="M85.331,51.849v-5.197h2.206c0.557,0,0.959,0.047,1.212,0.14c0.252,0.094,0.452,0.26,0.604,0.498
		c0.152,0.239,0.227,0.512,0.227,0.819c0,0.39-0.113,0.711-0.343,0.966c-0.23,0.253-0.572,0.413-1.028,0.48
		c0.228,0.132,0.414,0.277,0.562,0.435c0.148,0.159,0.346,0.439,0.597,0.844l0.635,1.015h-1.256l-0.757-1.132
		c-0.271-0.404-0.454-0.657-0.553-0.763c-0.099-0.105-0.205-0.177-0.317-0.217c-0.109-0.039-0.286-0.059-0.526-0.059H86.38v2.17
		H85.331z M86.38,48.849h0.775c0.504,0,0.817-0.02,0.943-0.064c0.125-0.042,0.223-0.116,0.294-0.22
		c0.07-0.103,0.105-0.233,0.105-0.389c0-0.176-0.045-0.316-0.14-0.424c-0.092-0.109-0.225-0.176-0.395-0.204
		c-0.085-0.012-0.34-0.019-0.766-0.019H86.38V48.849z"/>
</g>
</svg>
